# xmcd
#
# Track frame offsets:
#	150
#	12907
#	29100
#	47198
#	64614
#	79600
#	96262
#	112688
#	128679
#	146494
#	163261
#	177033
#
# Disc length: 2588 seconds
#
# Revision: 1
# Processed by: cddbd v1.5.2PL0 Copyright (c) Steve Scherf et al.
# Submitted via: audiograbber 1.83.01
#
DISCID=980a1a0c
DTITLE=All Saints - Studio 1
DYEAR=2006
DGENRE=Pop
TTITLE0=Rock Steady
TTITLE1=Chick Fit
TTITLE2=On And On
TTITLE3=Scar
TTITLE4=Not Eazy
TTITLE5=Hell No
TTITLE6=One Me And U
TTITLE7=Headlock
TTITLE8=Too Nasty
TTITLE9=In It To Win It
TTITLE10=Flashback
TTITLE11=Fundamental
EXTD=
EXTT0=
EXTT1=
EXTT2=
EXTT3=
EXTT4=
EXTT5=
EXTT6=
EXTT7=
EXTT8=
EXTT9=
EXTT10=
EXTT11=
PLAYORDER=
